<svg width="512" height="512" viewBox="0 0 512 512" fill="none" xmlns="http://www.w3.org/2000/svg">
<g clip-path="url(#clip0_3069_104)">
<g clip-path="url(#clip1_3069_104)">
<mask id="mask0_3069_104" style="mask-type:luminance" maskUnits="userSpaceOnUse" x="0" y="0" width="512" height="512">
<path d="M256 512C397.385 512 512 397.385 512 256C512 114.615 397.385 0 256 0C114.615 0 0 114.615 0 256C0 397.385 114.615 512 256 512Z" fill="white"/>
</mask>
<g mask="url(#mask0_3069_104)">
<path d="M256 512C397.385 512 512 397.385 512 256C512 114.615 397.385 0 256 0C114.615 0 0 114.615 0 256C0 397.385 114.615 512 256 512Z" fill="#005BFF"/>
<path d="M1942.19 -538.035C1940.76 -538.266 1933.87 -536.602 1929.34 -533.53C1888.67 -506.189 1834.7 -443.162 1761.69 -370.637C1719.83 -329.011 1671.78 -284.083 1617.1 -241.024C1585.28 -216.115 1551.21 -194.406 1515.08 -176.333C1277.26 -56.7297 1164.06 -11.2897 1062.76 70.9887C1056.72 75.9039 1049.88 79.4623 1043.02 83.1231C959.308 121.882 865.356 209.408 798.54 280.986C761.19 321.178 732.416 356.121 718.643 375.142C679.398 429.824 605.44 570.137 494.131 697.139C415.206 787.353 331.673 854.016 233.855 911.59H400.819C456.652 880.896 508.39 849.792 542.412 822.246C551.219 815.104 558.822 807.987 565.248 801.331C584.755 780.646 608.768 743.321 632.064 697.165C678.425 605.619 731.955 480.512 798.54 390.4C831.59 345.446 867.737 309.299 907.468 290.765C912.23 289.561 916.505 292.889 916.505 297.651C901.273 365.184 841.83 420.608 798.54 466.509C766.207 500.761 741.452 530.714 752.179 547.354C762.956 563.507 789.299 537.574 798.54 528.333C862.284 473.395 968.345 325.478 1042.3 261.734C1053.57 252.083 1069.9 234.368 1080.35 223.923C1124.33 173.517 1152.87 129.997 1209.24 79.8207C1371.42 -64.7681 1460.38 -63.3345 1637.55 -202.214C1712.23 -260.71 1777.64 -319.462 1829.48 -370.586C1905.1 -445.491 1950.77 -504.96 1950.28 -528.026C1950.28 -533.504 1947.67 -536.832 1942.19 -538.01V-538.035Z" fill="#F1117E"/>
<path d="M91.9032 23.6032C129.433 -7.24483 170.316 -33.7152 213.708 -55.5264C321.638 -109.773 467.174 -184.602 542.386 -245.504C551.193 -252.646 558.796 -259.763 565.222 -266.445C584.729 -287.13 608.742 -324.454 632.038 -370.586C678.399 -462.157 731.929 -587.238 798.514 -677.376C831.564 -722.304 867.711 -758.451 907.443 -777.011C912.179 -778.189 916.479 -774.861 916.479 -770.099C901.247 -702.566 841.778 -647.168 798.514 -601.267C766.156 -567.014 741.426 -537.062 752.127 -520.422C762.905 -504.269 789.273 -530.202 798.514 -539.443C862.233 -594.381 968.294 -742.298 1042.28 -806.016C1053.54 -815.667 1069.87 -833.382 1080.32 -843.853C1124.33 -894.259 1152.87 -937.779 1209.22 -987.955C1371.42 -1132.54 1460.38 -1131.14 1637.55 -1269.99C1712.23 -1328.49 1777.64 -1387.24 1829.45 -1438.36C1905.1 -1513.27 1950.74 -1572.74 1950.26 -1595.8C1950.26 -1601.25 1947.65 -1604.58 1942.19 -1605.79C1940.76 -1606.02 1933.85 -1604.35 1929.34 -1601.25C1888.66 -1573.91 1834.7 -1510.91 1761.69 -1438.36C1719.83 -1396.74 1671.78 -1351.81 1617.07 -1308.75C1585.25 -1283.84 1551.18 -1262.13 1515.06 -1244.08C1277.23 -1124.45 1164.03 -1079.04 1062.73 -996.736C1056.66 -991.821 1049.83 -988.262 1042.99 -984.627C959.282 -945.843 865.33 -858.342 798.514 -786.765C761.164 -746.573 732.39 -711.603 718.591 -692.582C679.346 -637.901 605.388 -497.587 494.079 -370.586C392.166 -254.131 282.623 -176.87 144.486 -107.802C38.4247 -61.6703 -3.66165 -11.0336 -114.97 79.5904C-132.634 93.8752 -148.02 107.418 -167.527 124.518C-167.527 124.518 -167.758 124.518 -167.758 124.749C-200.09 153.216 -231.374 182.784 -262.58 212.429V274.048C-164.66 204.723 -84.3528 168.525 91.9032 23.6032Z" fill="#F1117E"/>
<path d="M178.534 534.298C240.23 459.469 270.438 433.203 308.505 400.384C346.572 367.565 396.466 332.109 450.278 287.488C522.674 227.994 590.873 160.461 643.199 82.6369C662.194 56.0129 686.898 33.7665 712.166 13.2097C740.786 -10.2655 770.559 -32.4351 798.489 -56.7039C833.228 -86.1951 844.953 -73.7535 1052.49 -287.385C1076.74 -312.345 1094.58 -330.163 1118.13 -347.545C1130.01 -355.635 1142.63 -364.186 1155.22 -370.611C1261.26 -425.779 1385.8 -436.531 1495.53 -483.558C1568.05 -516.941 1622.71 -578.432 1679.38 -632.678C1734.71 -685.542 1801.8 -724.352 1865.11 -766.566C1943.73 -829.338 2018.51 -901.299 2074.88 -985.114C2093.87 -1011.74 2118.58 -1034.01 2143.85 -1054.54C2172.47 -1078.02 2202.24 -1100.19 2230.17 -1124.45C2264.91 -1153.95 2276.63 -1141.5 2484.17 -1355.14C2508.42 -1380.1 2526.26 -1397.94 2549.81 -1415.3C2561.69 -1423.39 2574.31 -1431.94 2586.91 -1438.36C2692.94 -1493.53 2817.48 -1504.28 2927.21 -1551.33C2999.73 -1584.69 3054.39 -1646.18 3111.07 -1700.43C3166.39 -1753.29 3233.48 -1792.1 3296.79 -1834.32C3375.41 -1897.09 3450.19 -1969.05 3506.56 -2052.86C3525.55 -2079.49 3550.26 -2101.76 3575.53 -2122.29C3582.75 -2128.23 3590.04 -2134.07 3597.36 -2139.88H3485.72C3467.8 -2120.01 3449.52 -2098.33 3430.94 -2074.04C3360.69 -1987.07 3275.24 -1902.18 3184.31 -1837.16C3021.64 -1723.72 2885.38 -1614.57 2848.51 -1613.16C2843.75 -1613.16 2840.24 -1616.92 2838.99 -1621.48C2832.82 -1643.83 2863.28 -1672.4 2883.46 -1692.57C2969.57 -1777.23 3229.72 -1905.66 3321.78 -2035.25C3345.56 -2069.27 3372.75 -2104.24 3397.3 -2139.88H3302.63C3287.17 -2129.56 3271.6 -2118.66 3257.55 -2107.32C3236.86 -2090.62 3223.94 -2071.24 3209.27 -2049.31C3158.14 -1974.37 3044.45 -1967.72 2878.95 -1764.17C2834.82 -1710.31 2778.5 -1669.3 2719.85 -1632.67C2649.93 -1589.38 2592.84 -1566.31 2535.3 -1518.49C2519.6 -1505.41 2485.35 -1469.52 2483.92 -1467.85C2471.81 -1455.74 2436.74 -1447.6 2440.63 -1474.97C2444.21 -1493.99 2477.26 -1529.91 2493.9 -1561.06C2536.24 -1633.23 2586.62 -1712.77 2664.19 -1751.32C2704.84 -1771.55 2746.01 -1779.38 2799.51 -1806.26C2892.39 -1852.7 2963.74 -1921.95 3033.04 -1998.41C3050.67 -2016.03 3066.5 -2035.76 3082.52 -2054.78C3121.77 -2094.03 3176.98 -2116.89 3229.59 -2139.88H3079.91C3071.05 -2135.12 3062.19 -2130.15 3053.26 -2124.93C3050.16 -2123.03 3005.7 -2094.26 2989.29 -2081.41C2956.88 -2056.4 2932.17 -2023.27 2902.25 -1995.55C2818.3 -1911.6 2673.23 -1875.94 2586.91 -1791.51C2478.69 -1683.33 2417.89 -1573.45 2346.7 -1438.39C2311.47 -1373.85 2275.56 -1315.64 2230.17 -1257.63C2164.27 -1174.4 2085.09 -1118.52 1999.23 -1006.26C1928.98 -919.296 1843.53 -834.432 1752.63 -769.408C1589.96 -655.974 1453.67 -546.816 1416.81 -545.382C1412.07 -545.382 1408.56 -549.171 1407.31 -553.728C1401.11 -576.077 1431.6 -604.646 1451.78 -624.819C1537.87 -709.478 1798.04 -837.914 1890.07 -967.501C1924.86 -1017.19 1966.9 -1068.98 1997.34 -1121.84C2057.98 -1225.52 2093.41 -1269.99 2162.15 -1326.13C2186.39 -1346.33 2208.49 -1367.68 2230.17 -1390.82C2247.04 -1408.87 2263.45 -1422.21 2277.73 -1438.39C2482.25 -1671.91 2436.84 -1728.28 2488.45 -1773.7C2671.08 -1930.88 2820.43 -1984.38 2897.74 -2047.18C2930 -2074.06 2951.83 -2112.36 2984.22 -2139.88H2847.85C2819.51 -2115.97 2788.43 -2088.55 2748.39 -2055.96C2730.73 -2041.68 2715.31 -2028.13 2695.83 -2011.03C2695.83 -2011.03 2695.58 -2011.03 2695.58 -2010.78C2624.46 -1948.21 2558.44 -1880.22 2487.27 -1817.68C2466.33 -1799.86 2423.76 -1753.96 2389.5 -1661.93C2358.12 -1600.33 2305.56 -1564.67 2230.17 -1495.48C2223.28 -1489.28 2216.37 -1481.42 2209.02 -1474.53C2196.66 -1462.89 2183.81 -1450.75 2173.11 -1438.39C2108.42 -1365.15 2067.25 -1284.99 2006.86 -1231C1992.34 -1216.03 1973.27 -1207.4 1956.2 -1198.67C1876.76 -1159.91 1752.86 -1133.98 1621.58 -1057.18C1618.48 -1055.26 1574.02 -1026.51 1557.61 -1013.66C1525.2 -988.621 1500.49 -955.494 1470.57 -927.795C1386.62 -843.853 1241.55 -808.192 1155.22 -723.763C1047.01 -615.577 986.214 -505.677 915.02 -370.611C879.794 -306.099 843.878 -247.885 798.489 -189.875C746.162 -123.776 604.518 11.7248 548.428 64.6912C534.86 77.4913 522.674 91.6225 511.897 106.855C507.468 113.127 501.836 120.525 494.898 128.615C476.006 150.682 441.522 194.253 426.623 209.997C426.623 209.997 422.553 215.757 419.404 218.599C387.66 247.296 354.662 274.176 320.921 298.317C158.258 411.751 21.9639 520.909 -14.9001 522.342C-19.6617 522.342 -23.1432 518.554 -24.3976 514.022C-30.5928 491.674 -0.10325 463.079 20.0696 442.906C45.4136 417.997 85.8103 389.299 132.582 357.888C141.158 352.128 171.314 330.547 178.662 326.247C199.423 314.138 219.033 297.933 237.746 281.805L237.849 281.728C243.89 276.531 248.652 270.054 252.236 262.912C264.806 237.824 289.484 223.078 321.894 214.938C329.01 213.146 335.82 210.33 342.015 206.387C361.394 194.023 383.052 179.251 405.99 159.079C406.041 159.027 406.066 158.976 406.118 158.95C426.623 139.494 444.441 119.859 458.393 100.224C493.183 50.5345 535.218 -1.25429 565.657 -54.1183C626.303 -157.798 661.734 -202.265 730.47 -258.406C754.713 -278.605 776.806 -299.955 798.489 -323.072C815.385 -341.146 831.769 -354.458 846.054 -370.637C1050.57 -604.186 1005.16 -660.531 1056.77 -705.946C1239.4 -863.155 1388.75 -916.659 1466.06 -979.43C1499.37 -1007.18 1521.54 -1047.12 1555.71 -1074.79C1602.07 -1112.37 1870.36 -1229.36 1974.04 -1313.33C1982.85 -1320.45 1990.45 -1327.59 1996.88 -1334.25C2016.36 -1354.96 2040.4 -1392.28 2063.69 -1438.41C2110.05 -1529.96 2163.56 -1655.07 2230.17 -1745.18C2263.22 -1790.13 2299.37 -1826.28 2339.1 -1844.84C2343.86 -1846.02 2348.13 -1842.69 2348.13 -1837.93C2332.9 -1770.39 2273.43 -1714.97 2230.17 -1669.09C2197.81 -1634.84 2173.08 -1604.89 2183.78 -1588.22C2194.56 -1572.07 2220.93 -1598.03 2230.17 -1607.27C2293.89 -1662.21 2399.95 -1810.12 2473.93 -1873.84C2485.2 -1883.49 2501.53 -1901.21 2511.97 -1911.65C2555.98 -1962.06 2584.52 -2005.61 2640.87 -2055.78C2680.6 -2091.19 2715.93 -2117.84 2749.26 -2139.93H2606.03C2564.51 -2116.17 2528.77 -2092.49 2494.39 -2064.56C2488.35 -2059.65 2481.51 -2056.09 2474.65 -2052.45C2390.94 -2013.7 2297.01 -1926.17 2230.17 -1854.59C2192.84 -1814.4 2164.07 -1779.43 2150.27 -1760.41C2111.03 -1705.73 2037.07 -1565.41 1925.76 -1438.41C1823.85 -1321.96 1714.3 -1244.72 1576.17 -1175.65C1470.08 -1129.5 1427.99 -1078.86 1316.68 -988.262C1299.05 -973.978 1283.63 -960.435 1264.13 -943.309C1264.13 -943.309 1263.9 -943.309 1263.9 -943.078C1192.78 -880.486 1126.76 -812.493 1055.56 -749.978C1034.65 -732.134 992.076 -686.233 957.823 -594.201C926.438 -532.608 873.881 -496.947 798.489 -427.75C791.577 -421.555 784.69 -413.722 777.318 -406.81C764.953 -395.162 752.102 -383.053 741.401 -370.662C676.71 -297.421 635.57 -217.267 575.154 -163.302C560.665 -148.301 541.593 -139.699 524.518 -130.944C462.412 -100.659 373.17 -78.2079 274.482 -33.1519C264.191 -28.4671 254.745 -22.067 246.578 -14.2334C230.297 1.35696 205.03 23.3986 177.382 41.293C131.02 71.2962 104.524 104.679 76.364 128.026C48.2296 151.373 15.1031 189.747 -26.2921 204.749C-26.2921 204.749 -194.868 272.666 -262.58 331.213V429.005C-243.559 411.213 -222.618 395.776 -199.194 384.128C-158.516 363.93 -42.7529 253.031 -23.6553 250.701C3.40394 247.424 46.3095 228.634 85.2983 206.08C87.3719 204.877 83.9928 198.195 90.5464 194.253C95.7944 191.104 100.326 195.994 101.068 195.559C113.97 187.879 128.153 178.816 151.142 157.235C157.337 150.579 163.506 143.846 169.676 137.037C181.452 125.261 192.46 112.538 203.238 99.7122C222.463 76.8514 245.017 56.8834 270.694 41.6258C317.823 13.5682 373.119 -5.14555 419.89 -29.3888C464.358 -60.3136 523.007 -102.477 528.332 -76.2367C528.332 -70.0671 522.162 -62.6943 512.178 -54.1183C486.015 -32.4863 433.919 -3.94225 394.214 28.1602C373.529 44.8514 360.575 64.2305 345.932 86.1697C330.982 108.058 310.732 124.135 285.362 140.954H285.337C284.62 141.466 283.903 141.927 283.161 142.413C283.161 142.413 283.135 142.413 283.11 142.439C282.674 142.746 282.214 143.053 281.753 143.335L281.702 143.386L266.495 150.963L263.961 154.778H263.935L256.409 165.402H253.362C249.318 167.015 240.23 170.803 233.906 173.85C233.804 173.901 233.702 173.952 233.599 174.003C233.522 174.029 233.446 174.08 233.369 174.106C233.241 174.208 233.113 174.311 233.01 174.413C232.908 174.464 231.986 175.565 231.935 175.616C199.73 196.429 163.25 221.235 121.062 259.277C107.34 267.469 83.1992 280.602 59.084 287.488C55.6792 288.461 51.5063 289.075 47.5127 289.459C37.0423 290.483 27.34 295.398 20.3256 303.232C2.02157 323.686 -20.3785 352.794 -22.2217 355.738C-37.3513 379.904 -96.1801 473.242 -143.489 502.784C-187.086 529.792 -225.69 548.915 -262.529 571.085V690.202C-159.617 640.947 -41.0888 629.12 63.8968 584.141C90.572 571.853 146.124 573.619 178.559 534.272L178.534 534.298ZM1008.97 -407.27C1012.58 -426.291 1045.61 -462.208 1062.25 -493.338C1104.59 -565.504 1154.97 -645.018 1232.54 -683.597C1273.19 -703.795 1314.35 -711.654 1367.86 -738.534C1460.74 -784.973 1532.08 -854.195 1601.41 -930.688C1619.02 -948.301 1634.84 -968.013 1650.87 -987.059C1703.91 -1040.08 1786.11 -1063.22 1851.57 -1097.14C1896.06 -1128.06 1954.69 -1170.23 1960.04 -1144.01C1960.04 -1137.82 1953.84 -1130.44 1943.86 -1121.89C1917.7 -1100.24 1865.62 -1071.69 1825.89 -1039.59C1805.21 -1022.92 1792.28 -1003.52 1777.64 -981.581C1726.49 -906.675 1612.8 -900.019 1447.3 -696.448C1403.16 -642.586 1346.84 -601.574 1288.19 -564.941C1218.28 -521.651 1161.19 -498.586 1103.64 -450.79C1087.95 -437.709 1053.7 -401.792 1052.26 -400.128C1040.15 -388.019 1005.08 -379.878 1008.97 -407.27Z" fill="#F1117E"/>
<path d="M-222.439 79.8207C-60.2635 -64.7937 28.6965 -63.3601 205.874 -202.24C280.549 -260.736 345.957 -319.488 397.797 -370.611C473.42 -445.517 519.09 -504.986 518.604 -528.051C518.604 -533.53 515.993 -536.858 510.514 -538.035C509.081 -538.266 502.194 -536.602 497.663 -533.53C456.985 -506.189 403.02 -443.162 330.009 -370.637C288.153 -329.011 240.101 -284.083 185.42 -241.024C153.599 -216.115 119.525 -194.406 83.4037 -176.333C-77.1595 -95.5649 -180.916 -48.6145 -262.555 -1.33129V118.937C-250.625 106.189 -237.544 93.2351 -222.465 79.8207H-222.439Z" fill="#F1117E"/>
<path d="M3737.78 -2139.9C3705.47 -2116.1 3677.31 -2093.18 3661.82 -2075.72C3656.5 -2069.96 3653.02 -2063.82 3647.56 -2055.27C3588.81 -1963.24 3506.05 -1969.66 3345.3 -1765.15C3321.06 -1734.48 3292.52 -1707.83 3259.93 -1686.43C3160.98 -1621.02 3124.61 -1633.64 2937.93 -1457.18C2931.28 -1450.98 2924.39 -1444.33 2917.48 -1438.39C2912.25 -1433.88 2907.01 -1429.12 2901.55 -1424.84C2808.09 -1352.32 2586.9 -1198.44 2551.5 -1209.4C2549.61 -1210.11 2548.4 -1212.01 2549.12 -1214.16C2574.08 -1303.09 2778.14 -1381.32 2800.97 -1414.63C2802.64 -1417.01 2803.35 -1424.15 2793.83 -1424.15C2574.8 -1428.43 2556.01 -1254.6 2492.26 -1196.11C2490.83 -1195.16 2283.93 -1068.65 2230.17 -1008C2224.84 -1002.24 2221.36 -996.096 2215.91 -987.546C2157.16 -895.514 2074.39 -901.939 1913.65 -697.421C1889.41 -666.752 1860.86 -640.102 1828.27 -618.701C1729.33 -553.293 1692.95 -565.914 1506.28 -389.453C1499.62 -383.258 1492.73 -376.602 1485.82 -370.662C1480.6 -366.157 1475.35 -361.395 1469.9 -357.12C1376.43 -284.595 1155.25 -130.714 1119.85 -141.67C1117.95 -142.387 1116.75 -144.282 1117.46 -146.432C1142.42 -235.366 1346.48 -313.6 1369.32 -346.906C1370.98 -349.286 1371.7 -356.429 1362.17 -356.429C1143.14 -360.704 1124.35 -186.88 1060.61 -128.384C1059.17 -127.437 852.274 -0.921537 798.514 59.7249C793.189 65.4849 789.708 71.6288 784.255 80.1792C732.773 160.845 538.136 291.379 538.136 291.379C515.813 310.554 477.26 364.186 451.583 385.894C417.56 414.694 400.741 423.962 353.56 449.997L353.125 450.227C291.608 484.147 257.074 522.829 234.136 544.282C194.892 571.392 145.637 611.149 74.5971 678.272C67.9411 684.467 61.0548 691.123 54.1428 697.062C48.9204 701.568 43.6724 706.33 38.2196 710.605C-33.9981 766.643 -182.401 871.194 -262.529 910.848V911.514H-127.284C-97.0765 896.768 -64.0781 879.104 -27.9053 857.114C5.63071 836.89 37.2723 813.594 66.7379 787.917C107.647 752.256 144.511 722.048 175.41 697.062H175.384C331.877 570.573 380.159 559.386 498.354 480.435C533.068 457.114 564.94 428.365 592.536 395.545C659.071 315.725 725.912 253.619 798.488 181.043C880.178 99.3791 976.383 33.3056 1063.19 -43.2128C1133.82 -99.0976 1233.46 -107.187 1403.75 -210.637C1437.29 -230.861 1468.93 -254.157 1498.39 -279.834C1539.3 -315.494 1576.17 -345.702 1607.06 -370.688C1763.53 -497.203 1811.84 -508.39 1930.03 -587.341C1964.75 -610.662 1996.62 -639.411 2024.22 -672.23C2090.75 -752.051 2157.59 -814.157 2230.17 -886.733C2311.86 -968.397 2408.06 -1034.47 2494.87 -1110.99C2565.5 -1166.87 2665.14 -1174.96 2835.43 -1278.41C2868.97 -1298.64 2900.61 -1321.93 2930.07 -1347.61C2970.98 -1383.27 3007.85 -1413.48 3038.74 -1438.46C3195.21 -1564.98 3243.52 -1576.17 3361.71 -1655.12C3396.43 -1678.44 3428.3 -1707.19 3455.9 -1740.01C3522.43 -1819.83 3589.27 -1881.93 3661.85 -1954.51C3729.46 -2022.09 3806.98 -2079 3880.91 -2139.98H3737.78V-2139.9Z" fill="#F1117E"/>
</g>
</g>
<g clip-path="url(#clip2_3069_104)">
<path d="M256 0C397.385 0 512 114.615 512 256C512 397.385 397.385 512 256 512C114.615 512 0 397.385 0 256C0 114.615 114.615 0 256 0ZM151.887 92.1621C120.313 113.234 95.7039 143.184 81.1719 178.226C66.6399 213.267 62.8375 251.825 70.2461 289.024C77.6542 326.224 95.9403 360.394 122.792 387.213C149.644 414.032 183.855 432.297 221.1 439.696C258.344 447.096 296.949 443.298 332.032 428.783C367.115 414.269 397.102 389.69 418.199 358.153C439.297 326.617 450.557 289.541 450.557 251.612C399.357 165.494 237.223 93.3254 151.887 92.1621Z" fill="white"/>
</g>
</g>
<defs>
<clipPath id="clip0_3069_104">
<rect width="512" height="512" fill="white"/>
</clipPath>
<clipPath id="clip1_3069_104">
<rect width="512" height="512" fill="white"/>
</clipPath>
<clipPath id="clip2_3069_104">
<rect width="512" height="512" fill="white"/>
</clipPath>
</defs>
</svg>
